<svg width="489" height="39" viewBox="0 0 489 39" fill="none" xmlns="http://www.w3.org/2000/svg">
<path d="M126.667 19.0026C126.672 19.739 127.274 20.3312 128.01 20.3254C128.747 20.3195 129.339 19.7178 129.333 18.9815C129.327 18.2451 128.726 17.6529 127.989 17.6588C127.253 17.6646 126.661 18.2663 126.667 19.0026ZM0 20.0079L0.00198406 20.2579L128.002 19.2421L128 18.9921L127.998 18.7421L-0.00198406 19.7579L0 20.0079Z" fill="#02A2C7"/>
<path d="M160 0.5H329C331.809 0.5 333.885 0.500573 335.527 0.634766C337.164 0.768464 338.325 1.03224 339.312 1.53516C341.1 2.44595 342.554 3.89996 343.465 5.6875C343.968 6.67471 344.232 7.83635 344.365 9.47266C344.499 11.1151 344.5 13.1915 344.5 16V23C344.5 25.8085 344.499 27.8849 344.365 29.5273C344.232 31.1637 343.968 32.3253 343.465 33.3125C342.554 35.1 341.1 36.554 339.312 37.4648C338.325 37.9678 337.164 38.2315 335.527 38.3652C333.885 38.4994 331.809 38.5 329 38.5H160C157.191 38.5 155.115 38.4994 153.473 38.3652C151.836 38.2315 150.675 37.9678 149.688 37.4648C147.9 36.554 146.446 35.1 145.535 33.3125C145.032 32.3253 144.768 31.1637 144.635 29.5273C144.501 27.8849 144.5 25.8085 144.5 23V16L144.502 14.0264C144.508 12.1805 144.534 10.7045 144.635 9.47266C144.768 7.83635 145.032 6.67471 145.535 5.6875C146.446 3.89996 147.9 2.44595 149.688 1.53516C150.675 1.03224 151.836 0.768464 153.473 0.634766C155.115 0.500573 157.191 0.5 160 0.5Z" stroke="#02A2C7"/>
<path d="M192.508 22.4453L194.773 13.625H195.961L195.828 15.8984L193.406 25H192.172L192.508 22.4453ZM190.812 13.625L192.648 22.375L192.812 25H191.5L188.867 13.625H190.812ZM198.531 22.3516L200.344 13.625H202.297L199.664 25H198.352L198.531 22.3516ZM196.422 13.625L198.664 22.4688L198.992 25H197.758L195.375 15.8984L195.25 13.625H196.422ZM205.422 13V25H203.547V13H205.422ZM205.094 20.4609L204.484 20.4531C204.49 19.8698 204.57 19.3307 204.727 18.8359C204.888 18.3411 205.112 17.9115 205.398 17.5469C205.69 17.1771 206.039 16.8932 206.445 16.6953C206.852 16.4922 207.302 16.3906 207.797 16.3906C208.214 16.3906 208.589 16.4479 208.922 16.5625C209.26 16.6771 209.552 16.862 209.797 17.1172C210.042 17.3672 210.227 17.6953 210.352 18.1016C210.482 18.5026 210.547 18.9922 210.547 19.5703V25H208.656V19.5547C208.656 19.1484 208.596 18.8255 208.477 18.5859C208.362 18.3464 208.193 18.1745 207.969 18.0703C207.745 17.9609 207.471 17.9062 207.148 17.9062C206.81 17.9062 206.51 17.974 206.25 18.1094C205.995 18.2448 205.781 18.4297 205.609 18.6641C205.438 18.8984 205.307 19.1693 205.219 19.4766C205.135 19.7839 205.094 20.112 205.094 20.4609ZM214.906 24.0781L217.203 16.5469H219.219L215.828 26.2891C215.75 26.4974 215.648 26.724 215.523 26.9688C215.398 27.2135 215.234 27.4453 215.031 27.6641C214.833 27.888 214.586 28.0677 214.289 28.2031C213.992 28.3438 213.633 28.4141 213.211 28.4141C213.044 28.4141 212.883 28.3984 212.727 28.3672C212.576 28.3411 212.432 28.3125 212.297 28.2812L212.289 26.8438C212.341 26.849 212.404 26.8542 212.477 26.8594C212.555 26.8646 212.617 26.8672 212.664 26.8672C212.977 26.8672 213.237 26.8281 213.445 26.75C213.654 26.6771 213.823 26.5573 213.953 26.3906C214.089 26.224 214.203 26 214.297 25.7188L214.906 24.0781ZM213.609 16.5469L215.617 22.875L215.953 24.8594L214.648 25.1953L211.578 16.5469H213.609ZM231.188 21.2969H233.141C233.078 22.0417 232.87 22.7057 232.516 23.2891C232.161 23.8672 231.664 24.3229 231.023 24.6562C230.383 24.9896 229.604 25.1562 228.688 25.1562C227.984 25.1562 227.352 25.0312 226.789 24.7812C226.227 24.526 225.745 24.1667 225.344 23.7031C224.943 23.2344 224.635 22.6693 224.422 22.0078C224.214 21.3464 224.109 20.6068 224.109 19.7891V18.8438C224.109 18.026 224.216 17.2865 224.43 16.625C224.648 15.9635 224.961 15.3984 225.367 14.9297C225.773 14.4557 226.26 14.0938 226.828 13.8438C227.401 13.5938 228.044 13.4688 228.758 13.4688C229.664 13.4688 230.43 13.6354 231.055 13.9688C231.68 14.3021 232.164 14.763 232.508 15.3516C232.857 15.9401 233.07 16.6146 233.148 17.375H231.195C231.143 16.8854 231.029 16.4661 230.852 16.1172C230.68 15.7682 230.424 15.5026 230.086 15.3203C229.747 15.1328 229.305 15.0391 228.758 15.0391C228.31 15.0391 227.919 15.1224 227.586 15.2891C227.253 15.4557 226.974 15.7005 226.75 16.0234C226.526 16.3464 226.357 16.7448 226.242 17.2188C226.133 17.6875 226.078 18.224 226.078 18.8281V19.7891C226.078 20.362 226.128 20.8828 226.227 21.3516C226.331 21.8151 226.487 22.2135 226.695 22.5469C226.909 22.8802 227.18 23.138 227.508 23.3203C227.836 23.5026 228.229 23.5938 228.688 23.5938C229.245 23.5938 229.695 23.5052 230.039 23.3281C230.388 23.151 230.651 22.8932 230.828 22.5547C231.01 22.2109 231.13 21.7917 231.188 21.2969ZM236.594 13V25H234.719V13H236.594ZM236.266 20.4609L235.656 20.4531C235.661 19.8698 235.742 19.3307 235.898 18.8359C236.06 18.3411 236.284 17.9115 236.57 17.5469C236.862 17.1771 237.211 16.8932 237.617 16.6953C238.023 16.4922 238.474 16.3906 238.969 16.3906C239.385 16.3906 239.76 16.4479 240.094 16.5625C240.432 16.6771 240.724 16.862 240.969 17.1172C241.214 17.3672 241.398 17.6953 241.523 18.1016C241.654 18.5026 241.719 18.9922 241.719 19.5703V25H239.828V19.5547C239.828 19.1484 239.768 18.8255 239.648 18.5859C239.534 18.3464 239.365 18.1745 239.141 18.0703C238.917 17.9609 238.643 17.9062 238.32 17.9062C237.982 17.9062 237.682 17.974 237.422 18.1094C237.167 18.2448 236.953 18.4297 236.781 18.6641C236.609 18.8984 236.479 19.1693 236.391 19.4766C236.307 19.7839 236.266 20.112 236.266 20.4609ZM243.266 20.8672V20.6875C243.266 20.0781 243.354 19.513 243.531 18.9922C243.708 18.4661 243.964 18.0104 244.297 17.625C244.635 17.2344 245.047 16.9323 245.531 16.7188C246.021 16.5 246.573 16.3906 247.188 16.3906C247.807 16.3906 248.359 16.5 248.844 16.7188C249.333 16.9323 249.747 17.2344 250.086 17.625C250.424 18.0104 250.682 18.4661 250.859 18.9922C251.036 19.513 251.125 20.0781 251.125 20.6875V20.8672C251.125 21.4766 251.036 22.0417 250.859 22.5625C250.682 23.0833 250.424 23.5391 250.086 23.9297C249.747 24.3151 249.336 24.6172 248.852 24.8359C248.367 25.0495 247.818 25.1562 247.203 25.1562C246.583 25.1562 246.029 25.0495 245.539 24.8359C245.055 24.6172 244.643 24.3151 244.305 23.9297C243.966 23.5391 243.708 23.0833 243.531 22.5625C243.354 22.0417 243.266 21.4766 243.266 20.8672ZM245.148 20.6875V20.8672C245.148 21.2474 245.188 21.6068 245.266 21.9453C245.344 22.2839 245.466 22.5807 245.633 22.8359C245.799 23.0911 246.013 23.2917 246.273 23.4375C246.534 23.5833 246.844 23.6562 247.203 23.6562C247.552 23.6562 247.854 23.5833 248.109 23.4375C248.37 23.2917 248.583 23.0911 248.75 22.8359C248.917 22.5807 249.039 22.2839 249.117 21.9453C249.201 21.6068 249.242 21.2474 249.242 20.8672V20.6875C249.242 20.3125 249.201 19.9583 249.117 19.625C249.039 19.2865 248.914 18.987 248.742 18.7266C248.576 18.4661 248.362 18.263 248.102 18.1172C247.846 17.9661 247.542 17.8906 247.188 17.8906C246.833 17.8906 246.526 17.9661 246.266 18.1172C246.01 18.263 245.799 18.4661 245.633 18.7266C245.466 18.987 245.344 19.2865 245.266 19.625C245.188 19.9583 245.148 20.3125 245.148 20.6875ZM252.344 20.8672V20.6875C252.344 20.0781 252.432 19.513 252.609 18.9922C252.786 18.4661 253.042 18.0104 253.375 17.625C253.714 17.2344 254.125 16.9323 254.609 16.7188C255.099 16.5 255.651 16.3906 256.266 16.3906C256.885 16.3906 257.438 16.5 257.922 16.7188C258.411 16.9323 258.826 17.2344 259.164 17.625C259.503 18.0104 259.76 18.4661 259.938 18.9922C260.115 19.513 260.203 20.0781 260.203 20.6875V20.8672C260.203 21.4766 260.115 22.0417 259.938 22.5625C259.76 23.0833 259.503 23.5391 259.164 23.9297C258.826 24.3151 258.414 24.6172 257.93 24.8359C257.445 25.0495 256.896 25.1562 256.281 25.1562C255.661 25.1562 255.107 25.0495 254.617 24.8359C254.133 24.6172 253.721 24.3151 253.383 23.9297C253.044 23.5391 252.786 23.0833 252.609 22.5625C252.432 22.0417 252.344 21.4766 252.344 20.8672ZM254.227 20.6875V20.8672C254.227 21.2474 254.266 21.6068 254.344 21.9453C254.422 22.2839 254.544 22.5807 254.711 22.8359C254.878 23.0911 255.091 23.2917 255.352 23.4375C255.612 23.5833 255.922 23.6562 256.281 23.6562C256.63 23.6562 256.932 23.5833 257.188 23.4375C257.448 23.2917 257.661 23.0911 257.828 22.8359C257.995 22.5807 258.117 22.2839 258.195 21.9453C258.279 21.6068 258.32 21.2474 258.32 20.8672V20.6875C258.32 20.3125 258.279 19.9583 258.195 19.625C258.117 19.2865 257.992 18.987 257.82 18.7266C257.654 18.4661 257.44 18.263 257.18 18.1172C256.924 17.9661 256.62 17.8906 256.266 17.8906C255.911 17.8906 255.604 17.9661 255.344 18.1172C255.089 18.263 254.878 18.4661 254.711 18.7266C254.544 18.987 254.422 19.2865 254.344 19.625C254.266 19.9583 254.227 20.3125 254.227 20.6875ZM266.523 22.7109C266.523 22.5234 266.477 22.3542 266.383 22.2031C266.289 22.0469 266.109 21.9062 265.844 21.7812C265.583 21.6562 265.198 21.5417 264.688 21.4375C264.24 21.3385 263.828 21.2214 263.453 21.0859C263.083 20.9453 262.766 20.776 262.5 20.5781C262.234 20.3802 262.029 20.1458 261.883 19.875C261.737 19.6042 261.664 19.2917 261.664 18.9375C261.664 18.5938 261.74 18.2682 261.891 17.9609C262.042 17.6536 262.258 17.3828 262.539 17.1484C262.82 16.9141 263.161 16.7292 263.562 16.5938C263.969 16.4583 264.422 16.3906 264.922 16.3906C265.63 16.3906 266.237 16.5104 266.742 16.75C267.253 16.9844 267.643 17.3047 267.914 17.7109C268.185 18.112 268.32 18.5651 268.32 19.0703H266.438C266.438 18.8464 266.38 18.638 266.266 18.4453C266.156 18.2474 265.99 18.0885 265.766 17.9688C265.542 17.8438 265.26 17.7812 264.922 17.7812C264.599 17.7812 264.331 17.8333 264.117 17.9375C263.909 18.0365 263.753 18.1667 263.648 18.3281C263.549 18.4896 263.5 18.6667 263.5 18.8594C263.5 19 263.526 19.1276 263.578 19.2422C263.635 19.3516 263.729 19.4531 263.859 19.5469C263.99 19.6354 264.167 19.7188 264.391 19.7969C264.62 19.875 264.906 19.9505 265.25 20.0234C265.896 20.1589 266.451 20.3333 266.914 20.5469C267.383 20.7552 267.742 21.026 267.992 21.3594C268.242 21.6875 268.367 22.1042 268.367 22.6094C268.367 22.9844 268.286 23.3281 268.125 23.6406C267.969 23.9479 267.74 24.2161 267.438 24.4453C267.135 24.6693 266.773 24.8438 266.352 24.9688C265.935 25.0938 265.466 25.1562 264.945 25.1562C264.18 25.1562 263.531 25.0208 263 24.75C262.469 24.474 262.065 24.1224 261.789 23.6953C261.518 23.263 261.383 22.8151 261.383 22.3516H263.203C263.224 22.7005 263.32 22.9792 263.492 23.1875C263.669 23.3906 263.888 23.5391 264.148 23.6328C264.414 23.7214 264.688 23.7656 264.969 23.7656C265.307 23.7656 265.591 23.7214 265.82 23.6328C266.049 23.5391 266.224 23.4141 266.344 23.2578C266.464 23.0964 266.523 22.9141 266.523 22.7109ZM273.742 25.1562C273.117 25.1562 272.552 25.0547 272.047 24.8516C271.547 24.6432 271.12 24.3542 270.766 23.9844C270.417 23.6146 270.148 23.1797 269.961 22.6797C269.773 22.1797 269.68 21.6406 269.68 21.0625V20.75C269.68 20.0885 269.776 19.4896 269.969 18.9531C270.161 18.4167 270.43 17.9583 270.773 17.5781C271.117 17.1927 271.523 16.8984 271.992 16.6953C272.461 16.4922 272.969 16.3906 273.516 16.3906C274.12 16.3906 274.648 16.4922 275.102 16.6953C275.555 16.8984 275.93 17.1849 276.227 17.5547C276.529 17.9193 276.753 18.3542 276.898 18.8594C277.049 19.3646 277.125 19.9219 277.125 20.5312V21.3359H270.594V19.9844H275.266V19.8359C275.255 19.4974 275.188 19.1797 275.062 18.8828C274.943 18.5859 274.758 18.3464 274.508 18.1641C274.258 17.9818 273.924 17.8906 273.508 17.8906C273.195 17.8906 272.917 17.9583 272.672 18.0938C272.432 18.224 272.232 18.4141 272.07 18.6641C271.909 18.9141 271.784 19.2161 271.695 19.5703C271.612 19.9193 271.57 20.3125 271.57 20.75V21.0625C271.57 21.4323 271.62 21.776 271.719 22.0938C271.823 22.4062 271.974 22.6797 272.172 22.9141C272.37 23.1484 272.609 23.3333 272.891 23.4688C273.172 23.599 273.492 23.6641 273.852 23.6641C274.305 23.6641 274.708 23.5729 275.062 23.3906C275.417 23.2083 275.724 22.9505 275.984 22.6172L276.977 23.5781C276.794 23.8438 276.557 24.099 276.266 24.3438C275.974 24.5833 275.617 24.7786 275.195 24.9297C274.779 25.0807 274.294 25.1562 273.742 25.1562ZM289.148 13.625H291.102V21.2266C291.102 22.0911 290.914 22.8151 290.539 23.3984C290.164 23.9818 289.654 24.4219 289.008 24.7188C288.367 25.0104 287.651 25.1562 286.859 25.1562C286.042 25.1562 285.312 25.0104 284.672 24.7188C284.031 24.4219 283.526 23.9818 283.156 23.3984C282.792 22.8151 282.609 22.0911 282.609 21.2266V13.625H284.562V21.2266C284.562 21.7734 284.656 22.224 284.844 22.5781C285.031 22.9271 285.297 23.1849 285.641 23.3516C285.984 23.5182 286.391 23.6016 286.859 23.6016C287.328 23.6016 287.732 23.5182 288.07 23.3516C288.414 23.1849 288.68 22.9271 288.867 22.5781C289.055 22.224 289.148 21.7734 289.148 21.2266V13.625ZM297.789 22.7109C297.789 22.5234 297.742 22.3542 297.648 22.2031C297.555 22.0469 297.375 21.9062 297.109 21.7812C296.849 21.6562 296.464 21.5417 295.953 21.4375C295.505 21.3385 295.094 21.2214 294.719 21.0859C294.349 20.9453 294.031 20.776 293.766 20.5781C293.5 20.3802 293.294 20.1458 293.148 19.875C293.003 19.6042 292.93 19.2917 292.93 18.9375C292.93 18.5938 293.005 18.2682 293.156 17.9609C293.307 17.6536 293.523 17.3828 293.805 17.1484C294.086 16.9141 294.427 16.7292 294.828 16.5938C295.234 16.4583 295.688 16.3906 296.188 16.3906C296.896 16.3906 297.503 16.5104 298.008 16.75C298.518 16.9844 298.909 17.3047 299.18 17.7109C299.451 18.112 299.586 18.5651 299.586 19.0703H297.703C297.703 18.8464 297.646 18.638 297.531 18.4453C297.422 18.2474 297.255 18.0885 297.031 17.9688C296.807 17.8438 296.526 17.7812 296.188 17.7812C295.865 17.7812 295.596 17.8333 295.383 17.9375C295.174 18.0365 295.018 18.1667 294.914 18.3281C294.815 18.4896 294.766 18.6667 294.766 18.8594C294.766 19 294.792 19.1276 294.844 19.2422C294.901 19.3516 294.995 19.4531 295.125 19.5469C295.255 19.6354 295.432 19.7188 295.656 19.7969C295.885 19.875 296.172 19.9505 296.516 20.0234C297.161 20.1589 297.716 20.3333 298.18 20.5469C298.648 20.7552 299.008 21.026 299.258 21.3594C299.508 21.6875 299.633 22.1042 299.633 22.6094C299.633 22.9844 299.552 23.3281 299.391 23.6406C299.234 23.9479 299.005 24.2161 298.703 24.4453C298.401 24.6693 298.039 24.8438 297.617 24.9688C297.201 25.0938 296.732 25.1562 296.211 25.1562C295.445 25.1562 294.797 25.0208 294.266 24.75C293.734 24.474 293.331 24.1224 293.055 23.6953C292.784 23.263 292.648 22.8151 292.648 22.3516H294.469C294.49 22.7005 294.586 22.9792 294.758 23.1875C294.935 23.3906 295.154 23.5391 295.414 23.6328C295.68 23.7214 295.953 23.7656 296.234 23.7656C296.573 23.7656 296.857 23.7214 297.086 23.6328C297.315 23.5391 297.49 23.4141 297.609 23.2578C297.729 23.0964 297.789 22.9141 297.789 22.7109Z" fill="#35B5D2"/>
<path d="M359.667 20.0185C359.673 20.7549 360.274 21.3471 361.011 21.3412C361.747 21.3354 362.339 20.7337 362.333 19.9974C362.327 19.261 361.726 18.6688 360.989 18.6746C360.253 18.6805 359.661 19.2822 359.667 20.0185ZM361 20.0079L361.002 20.2579L489.002 19.2421L489 18.9921L488.998 18.7421L360.998 19.7579L361 20.0079Z" fill="#02A2C7"/>
</svg>
